<svg width="87" height="68" viewBox="0 0 87 68" fill="none" xmlns="http://www.w3.org/2000/svg">
<path d="M0 0H76.8211C82.3439 0 86.8211 4.47715 86.8211 10V57.8732C86.8211 63.3961 82.3439 67.8732 76.8211 67.8732H0V0Z" fill="url(#paint0_linear)"/>
<path d="M44.77 27.34C44.92 26.32 45.2 25.425 45.61 24.655C46.03 23.885 46.555 23.245 47.185 22.735C47.815 22.215 48.535 21.825 49.345 21.565C50.165 21.295 51.05 21.16 52 21.16C52.96 21.16 53.83 21.3 54.61 21.58C55.4 21.85 56.075 22.23 56.635 22.72C57.205 23.21 57.64 23.795 57.94 24.475C58.25 25.155 58.405 25.9 58.405 26.71C58.405 27.4 58.32 28.01 58.15 28.54C57.99 29.06 57.755 29.52 57.445 29.92C57.145 30.32 56.775 30.655 56.335 30.925C55.895 31.195 55.4 31.42 54.85 31.6C56.19 31.99 57.195 32.615 57.865 33.475C58.535 34.325 58.87 35.395 58.87 36.685C58.87 37.725 58.675 38.65 58.285 39.46C57.895 40.27 57.365 40.955 56.695 41.515C56.035 42.075 55.26 42.505 54.37 42.805C53.49 43.095 52.555 43.24 51.565 43.24C50.455 43.24 49.495 43.11 48.685 42.85C47.875 42.58 47.175 42.2 46.585 41.71C46.005 41.21 45.52 40.61 45.13 39.91C44.74 39.21 44.41 38.425 44.14 37.555L45.535 36.97C45.905 36.81 46.255 36.765 46.585 36.835C46.925 36.905 47.17 37.09 47.32 37.39C47.48 37.71 47.66 38.055 47.86 38.425C48.06 38.785 48.315 39.12 48.625 39.43C48.945 39.73 49.335 39.985 49.795 40.195C50.265 40.395 50.84 40.495 51.52 40.495C52.21 40.495 52.81 40.385 53.32 40.165C53.84 39.935 54.27 39.645 54.61 39.295C54.96 38.935 55.22 38.535 55.39 38.095C55.56 37.655 55.645 37.22 55.645 36.79C55.645 36.25 55.58 35.755 55.45 35.305C55.32 34.845 55.065 34.455 54.685 34.135C54.315 33.815 53.785 33.565 53.095 33.385C52.415 33.195 51.52 33.1 50.41 33.1V30.775C51.32 30.765 52.085 30.675 52.705 30.505C53.335 30.325 53.835 30.085 54.205 29.785C54.585 29.475 54.855 29.105 55.015 28.675C55.185 28.245 55.27 27.775 55.27 27.265C55.27 26.715 55.185 26.23 55.015 25.81C54.845 25.39 54.605 25.04 54.295 24.76C53.995 24.47 53.635 24.255 53.215 24.115C52.795 23.975 52.33 23.905 51.82 23.905C51.33 23.905 50.875 23.975 50.455 24.115C50.045 24.255 49.675 24.45 49.345 24.7C49.025 24.95 48.755 25.25 48.535 25.6C48.315 25.94 48.155 26.315 48.055 26.725C47.915 27.135 47.725 27.41 47.485 27.55C47.255 27.69 46.915 27.72 46.465 27.64L44.77 27.34ZM69.1773 29.38C69.6973 29.27 70.1923 29.19 70.6623 29.14C71.1423 29.09 71.6023 29.065 72.0423 29.065C73.1723 29.065 74.1673 29.235 75.0273 29.575C75.8973 29.905 76.6223 30.365 77.2023 30.955C77.7923 31.545 78.2323 32.24 78.5223 33.04C78.8223 33.83 78.9723 34.69 78.9723 35.62C78.9723 36.77 78.7723 37.815 78.3723 38.755C77.9723 39.695 77.4173 40.5 76.7073 41.17C75.9973 41.83 75.1573 42.34 74.1873 42.7C73.2273 43.06 72.1873 43.24 71.0673 43.24C70.4073 43.24 69.7773 43.175 69.1773 43.045C68.5873 42.915 68.0323 42.74 67.5123 42.52C66.9923 42.29 66.5123 42.03 66.0723 41.74C65.6323 41.44 65.2373 41.13 64.8873 40.81L65.8773 39.43C66.0873 39.13 66.3673 38.98 66.7173 38.98C66.9373 38.98 67.1773 39.06 67.4373 39.22C67.6973 39.38 67.9973 39.555 68.3373 39.745C68.6873 39.925 69.0973 40.095 69.5673 40.255C70.0373 40.415 70.5973 40.495 71.2473 40.495C71.9573 40.495 72.5923 40.38 73.1523 40.15C73.7123 39.92 74.1823 39.6 74.5623 39.19C74.9523 38.77 75.2473 38.27 75.4473 37.69C75.6473 37.11 75.7473 36.475 75.7473 35.785C75.7473 35.155 75.6523 34.59 75.4623 34.09C75.2823 33.59 75.0073 33.165 74.6373 32.815C74.2773 32.465 73.8223 32.2 73.2723 32.02C72.7223 31.83 72.0873 31.735 71.3673 31.735C70.8373 31.735 70.2923 31.78 69.7323 31.87C69.1823 31.96 68.6223 32.1 68.0523 32.29L66.0423 31.72L67.8123 21.4H78.2673V22.795C78.2673 23.255 78.1223 23.63 77.8323 23.92C77.5423 24.21 77.0573 24.355 76.3773 24.355H70.0473L69.1773 29.38Z" fill="white"/>
<defs>
<linearGradient id="paint0_linear" x1="0" y1="33.3803" x2="86.8211" y2="33.3803" gradientUnits="userSpaceOnUse">
<stop stop-color="#3300FF"/>
<stop offset="1" stop-color="#DC02FF"/>
</linearGradient>
</defs>
</svg>
