<svg width="209" height="73" viewBox="0 0 209 73" fill="none" xmlns="http://www.w3.org/2000/svg">
<path d="M0 0.450684H198.959C204.482 0.450684 208.959 4.92784 208.959 10.4507V58.3239C208.959 63.8468 204.482 68.3239 198.959 68.3239H0V0.450684Z" fill="url(#paint0_linear)"/>
<path d="M161.7 42.69C162.35 42.69 162.93 42.6 163.44 42.42C163.95 42.23 164.375 41.97 164.715 41.64C165.065 41.3 165.33 40.9 165.51 40.44C165.69 39.98 165.78 39.48 165.78 38.94C165.78 38.28 165.675 37.71 165.465 37.23C165.265 36.75 164.98 36.355 164.61 36.045C164.25 35.725 163.82 35.49 163.32 35.34C162.82 35.18 162.28 35.1 161.7 35.1C161.12 35.1 160.58 35.18 160.08 35.34C159.58 35.49 159.145 35.725 158.775 36.045C158.415 36.355 158.13 36.75 157.92 37.23C157.72 37.71 157.62 38.28 157.62 38.94C157.62 39.48 157.71 39.98 157.89 40.44C158.07 40.9 158.33 41.3 158.67 41.64C159.02 41.97 159.45 42.23 159.96 42.42C160.47 42.6 161.05 42.69 161.7 42.69ZM161.7 25.635C161.11 25.635 160.59 25.725 160.14 25.905C159.7 26.085 159.335 26.325 159.045 26.625C158.755 26.925 158.535 27.28 158.385 27.69C158.245 28.09 158.175 28.515 158.175 28.965C158.175 29.415 158.235 29.855 158.355 30.285C158.485 30.715 158.685 31.1 158.955 31.44C159.235 31.77 159.6 32.035 160.05 32.235C160.5 32.435 161.05 32.535 161.7 32.535C162.35 32.535 162.9 32.435 163.35 32.235C163.8 32.035 164.16 31.77 164.43 31.44C164.71 31.1 164.91 30.715 165.03 30.285C165.16 29.855 165.225 29.415 165.225 28.965C165.225 28.515 165.15 28.09 165 27.69C164.86 27.28 164.64 26.925 164.34 26.625C164.05 26.325 163.685 26.085 163.245 25.905C162.805 25.725 162.29 25.635 161.7 25.635ZM165.105 33.735C166.435 34.145 167.43 34.795 168.09 35.685C168.76 36.575 169.095 37.68 169.095 39C169.095 39.95 168.915 40.81 168.555 41.58C168.195 42.35 167.69 43.005 167.04 43.545C166.39 44.085 165.61 44.505 164.7 44.805C163.8 45.095 162.8 45.24 161.7 45.24C160.6 45.24 159.595 45.095 158.685 44.805C157.785 44.505 157.01 44.085 156.36 43.545C155.71 43.005 155.205 42.35 154.845 41.58C154.485 40.81 154.305 39.95 154.305 39C154.305 37.68 154.635 36.575 155.295 35.685C155.965 34.795 156.965 34.145 158.295 33.735C157.215 33.305 156.4 32.68 155.85 31.86C155.31 31.04 155.04 30.055 155.04 28.905C155.04 28.095 155.2 27.34 155.52 26.64C155.84 25.94 156.29 25.335 156.87 24.825C157.46 24.305 158.165 23.9 158.985 23.61C159.805 23.31 160.71 23.16 161.7 23.16C162.69 23.16 163.59 23.31 164.4 23.61C165.22 23.9 165.92 24.305 166.5 24.825C167.09 25.335 167.545 25.94 167.865 26.64C168.195 27.34 168.36 28.095 168.36 28.905C168.36 30.055 168.085 31.04 167.535 31.86C166.995 32.68 166.185 33.305 165.105 33.735ZM189.977 34.2C189.977 36.09 189.772 37.725 189.362 39.105C188.962 40.485 188.407 41.63 187.697 42.54C186.987 43.45 186.152 44.125 185.192 44.565C184.232 45.005 183.197 45.225 182.087 45.225C180.977 45.225 179.942 45.005 178.982 44.565C178.022 44.125 177.187 43.45 176.477 42.54C175.777 41.63 175.227 40.485 174.827 39.105C174.427 37.725 174.227 36.09 174.227 34.2C174.227 32.31 174.427 30.675 174.827 29.295C175.227 27.905 175.777 26.76 176.477 25.86C177.187 24.95 178.022 24.275 178.982 23.835C179.942 23.385 180.977 23.16 182.087 23.16C183.197 23.16 184.232 23.385 185.192 23.835C186.152 24.275 186.987 24.95 187.697 25.86C188.407 26.76 188.962 27.905 189.362 29.295C189.772 30.675 189.977 32.31 189.977 34.2ZM186.647 34.2C186.647 32.6 186.517 31.27 186.257 30.21C186.007 29.14 185.672 28.285 185.252 27.645C184.832 27.005 184.347 26.55 183.797 26.28C183.247 26.01 182.677 25.875 182.087 25.875C181.487 25.875 180.912 26.01 180.362 26.28C179.822 26.55 179.342 27.005 178.922 27.645C178.502 28.285 178.167 29.14 177.917 30.21C177.667 31.27 177.542 32.6 177.542 34.2C177.542 35.8 177.667 37.135 177.917 38.205C178.167 39.265 178.502 40.115 178.922 40.755C179.342 41.395 179.822 41.85 180.362 42.12C180.912 42.39 181.487 42.525 182.087 42.525C182.677 42.525 183.247 42.39 183.797 42.12C184.347 41.85 184.832 41.395 185.252 40.755C185.672 40.115 186.007 39.265 186.257 38.205C186.517 37.135 186.647 35.8 186.647 34.2Z" fill="white"/>
<defs>
<linearGradient id="paint0_linear" x1="0" y1="33.831" x2="208.959" y2="33.831" gradientUnits="userSpaceOnUse">
<stop stop-color="#3300FF"/>
<stop offset="1" stop-color="#DC02FF"/>
</linearGradient>
</defs>
</svg>
