<svg width="148" height="68" viewBox="0 0 148 68" fill="none" xmlns="http://www.w3.org/2000/svg">
<path d="M0 0.12677H137.89C143.413 0.12677 147.89 4.60392 147.89 10.1268V58C147.89 63.5229 143.413 68 137.89 68H0V0.12677Z" fill="url(#paint0_linear)"/>
<path d="M102.67 43.57C103.32 43.57 103.915 43.465 104.455 43.255C104.995 43.035 105.455 42.735 105.835 42.355C106.225 41.975 106.525 41.525 106.735 41.005C106.945 40.485 107.05 39.92 107.05 39.31C107.05 38.65 106.945 38.06 106.735 37.54C106.535 37.01 106.245 36.565 105.865 36.205C105.495 35.845 105.045 35.57 104.515 35.38C103.995 35.18 103.42 35.08 102.79 35.08C102.14 35.08 101.55 35.19 101.02 35.41C100.5 35.63 100.055 35.93 99.685 36.31C99.315 36.69 99.03 37.135 98.83 37.645C98.63 38.155 98.53 38.695 98.53 39.265C98.53 39.905 98.62 40.49 98.8 41.02C98.98 41.55 99.245 42.005 99.595 42.385C99.945 42.755 100.375 43.045 100.885 43.255C101.405 43.465 102 43.57 102.67 43.57ZM101.485 32.35C101.325 32.55 101.17 32.74 101.02 32.92C100.88 33.1 100.74 33.28 100.6 33.46C101.06 33.2 101.565 32.995 102.115 32.845C102.665 32.695 103.255 32.62 103.885 32.62C104.725 32.62 105.53 32.76 106.3 33.04C107.07 33.31 107.745 33.72 108.325 34.27C108.915 34.81 109.385 35.485 109.735 36.295C110.085 37.095 110.26 38.02 110.26 39.07C110.26 40.07 110.075 41.005 109.705 41.875C109.345 42.745 108.835 43.505 108.175 44.155C107.515 44.795 106.72 45.305 105.79 45.685C104.87 46.055 103.85 46.24 102.73 46.24C101.61 46.24 100.6 46.06 99.7 45.7C98.8 45.34 98.03 44.835 97.39 44.185C96.76 43.525 96.275 42.735 95.935 41.815C95.595 40.895 95.425 39.87 95.425 38.74C95.425 37.76 95.635 36.735 96.055 35.665C96.475 34.595 97.125 33.47 98.005 32.29L103.315 25.165C103.475 24.955 103.705 24.775 104.005 24.625C104.315 24.475 104.66 24.4 105.04 24.4H107.89L101.485 32.35ZM130.977 35.2C130.977 37.09 130.772 38.725 130.362 40.105C129.962 41.485 129.407 42.63 128.697 43.54C127.987 44.45 127.152 45.125 126.192 45.565C125.232 46.005 124.197 46.225 123.087 46.225C121.977 46.225 120.942 46.005 119.982 45.565C119.022 45.125 118.187 44.45 117.477 43.54C116.777 42.63 116.227 41.485 115.827 40.105C115.427 38.725 115.227 37.09 115.227 35.2C115.227 33.31 115.427 31.675 115.827 30.295C116.227 28.905 116.777 27.76 117.477 26.86C118.187 25.95 119.022 25.275 119.982 24.835C120.942 24.385 121.977 24.16 123.087 24.16C124.197 24.16 125.232 24.385 126.192 24.835C127.152 25.275 127.987 25.95 128.697 26.86C129.407 27.76 129.962 28.905 130.362 30.295C130.772 31.675 130.977 33.31 130.977 35.2ZM127.647 35.2C127.647 33.6 127.517 32.27 127.257 31.21C127.007 30.14 126.672 29.285 126.252 28.645C125.832 28.005 125.347 27.55 124.797 27.28C124.247 27.01 123.677 26.875 123.087 26.875C122.487 26.875 121.912 27.01 121.362 27.28C120.822 27.55 120.342 28.005 119.922 28.645C119.502 29.285 119.167 30.14 118.917 31.21C118.667 32.27 118.542 33.6 118.542 35.2C118.542 36.8 118.667 38.135 118.917 39.205C119.167 40.265 119.502 41.115 119.922 41.755C120.342 42.395 120.822 42.85 121.362 43.12C121.912 43.39 122.487 43.525 123.087 43.525C123.677 43.525 124.247 43.39 124.797 43.12C125.347 42.85 125.832 42.395 126.252 41.755C126.672 41.115 127.007 40.265 127.257 39.205C127.517 38.135 127.647 36.8 127.647 35.2Z" fill="white"/>
<defs>
<linearGradient id="paint0_linear" x1="0" y1="33.507" x2="147.89" y2="33.507" gradientUnits="userSpaceOnUse">
<stop stop-color="#3300FF"/>
<stop offset="1" stop-color="#DC02FF"/>
</linearGradient>
</defs>
</svg>
